<svg class="main-svg" xmlns="http://www.w3.org/2000/svg" xmlns:xlink="http://www.w3.org/1999/xlink" width="1500" height="600" style="" viewBox="0 0 1500 600"><rect x="0" y="0" width="1500" height="600" style="fill: rgb(255, 255, 255); fill-opacity: 1;"/><defs id="defs-f676a3"><g class="clips"><clipPath id="clipf676a3xyplot" class="plotclip"><rect width="874" height="420"/></clipPath><clipPath class="axesclip" id="clipf676a3x"><rect x="80" y="0" width="874" height="600"/></clipPath><clipPath class="axesclip" id="clipf676a3y"><rect x="0" y="100" width="1500" height="420"/></clipPath><clipPath class="axesclip" id="clipf676a3xy"><rect x="80" y="100" width="874" height="420"/></clipPath></g><g class="gradients"/><g class="patterns"/></defs><g class="bglayer"/><g class="layer-below"><g class="imagelayer"/><g class="shapelayer"/></g><g class="cartesianlayer"><g class="subplot xy"><g class="layer-subplot"><g class="shapelayer"/><g class="imagelayer"/></g><g class="gridlayer"><g class="x"><path class="xgrid crisp" transform="translate(127.45,0)" d="M0,100v420" style="stroke: rgb(235, 240, 248); stroke-opacity: 1; stroke-width: 1px;"/><path class="xgrid crisp" transform="translate(214.02,0)" d="M0,100v420" style="stroke: rgb(235, 240, 248); stroke-opacity: 1; stroke-width: 1px;"/><path class="xgrid crisp" transform="translate(300.58000000000004,0)" d="M0,100v420" style="stroke: rgb(235, 240, 248); stroke-opacity: 1; stroke-width: 1px;"/><path class="xgrid crisp" transform="translate(387.15,0)" d="M0,100v420" style="stroke: rgb(235, 240, 248); stroke-opacity: 1; stroke-width: 1px;"/><path class="xgrid crisp" transform="translate(473.72,0)" d="M0,100v420" style="stroke: rgb(235, 240, 248); stroke-opacity: 1; stroke-width: 1px;"/><path class="xgrid crisp" transform="translate(560.28,0)" d="M0,100v420" style="stroke: rgb(235, 240, 248); stroke-opacity: 1; stroke-width: 1px;"/><path class="xgrid crisp" transform="translate(646.85,0)" d="M0,100v420" style="stroke: rgb(235, 240, 248); stroke-opacity: 1; stroke-width: 1px;"/><path class="xgrid crisp" transform="translate(733.42,0)" d="M0,100v420" style="stroke: rgb(235, 240, 248); stroke-opacity: 1; stroke-width: 1px;"/><path class="xgrid crisp" transform="translate(819.98,0)" d="M0,100v420" style="stroke: rgb(235, 240, 248); stroke-opacity: 1; stroke-width: 1px;"/><path class="xgrid crisp" transform="translate(906.55,0)" d="M0,100v420" style="stroke: rgb(235, 240, 248); stroke-opacity: 1; stroke-width: 1px;"/></g><g class="y"><path class="ygrid crisp" transform="translate(0,440.35)" d="M80,0h874" style="stroke: rgb(235, 240, 248); stroke-opacity: 1; stroke-width: 1px;"/><path class="ygrid crisp" transform="translate(0,385.45)" d="M80,0h874" style="stroke: rgb(235, 240, 248); stroke-opacity: 1; stroke-width: 1px;"/><path class="ygrid crisp" transform="translate(0,330.55)" d="M80,0h874" style="stroke: rgb(235, 240, 248); stroke-opacity: 1; stroke-width: 1px;"/><path class="ygrid crisp" transform="translate(0,275.64)" d="M80,0h874" style="stroke: rgb(235, 240, 248); stroke-opacity: 1; stroke-width: 1px;"/><path class="ygrid crisp" transform="translate(0,220.74)" d="M80,0h874" style="stroke: rgb(235, 240, 248); stroke-opacity: 1; stroke-width: 1px;"/><path class="ygrid crisp" transform="translate(0,165.84)" d="M80,0h874" style="stroke: rgb(235, 240, 248); stroke-opacity: 1; stroke-width: 1px;"/><path class="ygrid crisp" transform="translate(0,110.94)" d="M80,0h874" style="stroke: rgb(235, 240, 248); stroke-opacity: 1; stroke-width: 1px;"/></g></g><g class="zerolinelayer"><path class="yzl zl crisp" transform="translate(0,495.25)" d="M80,0h874" style="stroke: rgb(235, 240, 248); stroke-opacity: 1; stroke-width: 2px;"/></g><path class="xlines-below"/><path class="ylines-below"/><g class="overlines-below"/><g class="xaxislayer-below"/><g class="yaxislayer-below"/><g class="overaxes-below"/><g class="plot" transform="translate(80,100)" clip-path="url(#clipf676a3xyplot)"><g class="scatterlayer mlayer"><g class="trace scatter trace415bfe" style="stroke-miterlimit: 2; opacity: 1;"><g class="fills"/><g class="errorbars"/><g class="lines"/><g class="points"><path class="point" transform="translate(47.45,395.25)" d="M3,0A3,3 0 1,1 0,-3A3,3 0 0,1 3,0Z" style="opacity: 1; stroke-width: 0px; fill: rgb(99, 110, 250); fill-opacity: 1;"/><path class="point" transform="translate(134.02,374.34)" d="M3,0A3,3 0 1,1 0,-3A3,3 0 0,1 3,0Z" style="opacity: 1; stroke-width: 0px; fill: rgb(99, 110, 250); fill-opacity: 1;"/><path class="point" transform="translate(220.58,342.96)" d="M3,0A3,3 0 1,1 0,-3A3,3 0 0,1 3,0Z" style="opacity: 1; stroke-width: 0px; fill: rgb(99, 110, 250); fill-opacity: 1;"/><path class="point" transform="translate(307.15,337.73)" d="M3,0A3,3 0 1,1 0,-3A3,3 0 0,1 3,0Z" style="opacity: 1; stroke-width: 0px; fill: rgb(99, 110, 250); fill-opacity: 1;"/><path class="point" transform="translate(393.72,107.67)" d="M3,0A3,3 0 1,1 0,-3A3,3 0 0,1 3,0Z" style="opacity: 1; stroke-width: 0px; fill: rgb(99, 110, 250); fill-opacity: 1;"/><path class="point" transform="translate(480.28,248.85)" d="M3,0A3,3 0 1,1 0,-3A3,3 0 0,1 3,0Z" style="opacity: 1; stroke-width: 0px; fill: rgb(99, 110, 250); fill-opacity: 1;"/><path class="point" transform="translate(566.85,254.08)" d="M3,0A3,3 0 1,1 0,-3A3,3 0 0,1 3,0Z" style="opacity: 1; stroke-width: 0px; fill: rgb(99, 110, 250); fill-opacity: 1;"/><path class="point" transform="translate(653.42,316.82)" d="M3,0A3,3 0 1,1 0,-3A3,3 0 0,1 3,0Z" style="opacity: 1; stroke-width: 0px; fill: rgb(99, 110, 250); fill-opacity: 1;"/><path class="point" transform="translate(739.98,379.56)" d="M3,0A3,3 0 1,1 0,-3A3,3 0 0,1 3,0Z" style="opacity: 1; stroke-width: 0px; fill: rgb(99, 110, 250); fill-opacity: 1;"/><path class="point" transform="translate(826.55,97.21)" d="M3,0A3,3 0 1,1 0,-3A3,3 0 0,1 3,0Z" style="opacity: 1; stroke-width: 0px; fill: rgb(99, 110, 250); fill-opacity: 1;"/></g><g class="text"/></g><g class="trace scatter trace06fef5" style="stroke-miterlimit: 2; opacity: 1;"><g class="fills"/><g class="errorbars"/><g class="lines"/><g class="points"><path class="point" transform="translate(47.45,388.51)" d="M3,0A3,3 0 1,1 0,-3A3,3 0 0,1 3,0Z" style="opacity: 1; stroke-width: 0px; fill: rgb(239, 85, 59); fill-opacity: 1;"/><path class="point" transform="translate(134.02,368.3)" d="M3,0A3,3 0 1,1 0,-3A3,3 0 0,1 3,0Z" style="opacity: 1; stroke-width: 0px; fill: rgb(239, 85, 59); fill-opacity: 1;"/><path class="point" transform="translate(220.58,327.89)" d="M3,0A3,3 0 1,1 0,-3A3,3 0 0,1 3,0Z" style="opacity: 1; stroke-width: 0px; fill: rgb(239, 85, 59); fill-opacity: 1;"/><path class="point" transform="translate(307.15,348.1)" d="M3,0A3,3 0 1,1 0,-3A3,3 0 0,1 3,0Z" style="opacity: 1; stroke-width: 0px; fill: rgb(239, 85, 59); fill-opacity: 1;"/><path class="point" transform="translate(393.72,166.21)" d="M3,0A3,3 0 1,1 0,-3A3,3 0 0,1 3,0Z" style="opacity: 1; stroke-width: 0px; fill: rgb(239, 85, 59); fill-opacity: 1;"/><path class="point" transform="translate(480.28,260.52)" d="M3,0A3,3 0 1,1 0,-3A3,3 0 0,1 3,0Z" style="opacity: 1; stroke-width: 0px; fill: rgb(239, 85, 59); fill-opacity: 1;"/><path class="point" transform="translate(566.85,260.52)" d="M3,0A3,3 0 1,1 0,-3A3,3 0 0,1 3,0Z" style="opacity: 1; stroke-width: 0px; fill: rgb(239, 85, 59); fill-opacity: 1;"/><path class="point" transform="translate(653.42,321.15)" d="M3,0A3,3 0 1,1 0,-3A3,3 0 0,1 3,0Z" style="opacity: 1; stroke-width: 0px; fill: rgb(239, 85, 59); fill-opacity: 1;"/><path class="point" transform="translate(739.98,388.51)" d="M3,0A3,3 0 1,1 0,-3A3,3 0 0,1 3,0Z" style="opacity: 1; stroke-width: 0px; fill: rgb(239, 85, 59); fill-opacity: 1;"/><path class="point" transform="translate(826.55,24.75)" d="M3,0A3,3 0 1,1 0,-3A3,3 0 0,1 3,0Z" style="opacity: 1; stroke-width: 0px; fill: rgb(239, 85, 59); fill-opacity: 1;"/></g><g class="text"/></g><g class="trace scatter tracec41f7a" style="stroke-miterlimit: 2; opacity: 1;"><g class="fills"/><g class="errorbars"/><g class="lines"><path class="js-line" d="M47.45,395.25L134.02,366.04L220.58,372L307.15,279.65L393.72,180.28L480.28,190.76L566.85,283.12L653.42,308.52L739.98,380.6L826.55,395.25" style="vector-effect: non-scaling-stroke; fill: none; stroke: rgb(0, 204, 150); stroke-opacity: 1; stroke-width: 2px; opacity: 1;"/></g><g class="points"/><g class="text"/></g><g class="trace scatter trace24ada3" style="stroke-miterlimit: 2; opacity: 1;"><g class="fills"/><g class="errorbars"/><g class="lines"><path class="js-line" d="M47.45,389.35L134.02,361.65L220.58,351.19L307.15,301.49L393.72,224.47L480.28,213.92L566.85,283.83L653.42,314.49L739.98,389.35L826.55,395.25" style="vector-effect: non-scaling-stroke; fill: none; stroke: rgb(171, 99, 250); stroke-opacity: 1; stroke-width: 2px; opacity: 1;"/></g><g class="points"/><g class="text"/></g></g></g><g class="overplot"/><path class="xlines-above crisp" d="M0,0" style="fill: none;"/><path class="ylines-above crisp" d="M0,0" style="fill: none;"/><g class="overlines-above"/><g class="xaxislayer-above"><g class="xtick"><text text-anchor="middle" x="0" y="545" transform="translate(127.45,0)" style="font-family: 'Times New Roman'; font-size: 24px; fill: rgb(0, 0, 0); fill-opacity: 1; white-space: pre; opacity: 1;">0-10%</text></g><g class="xtick"><text text-anchor="middle" x="0" y="545" transform="translate(214.02,0)" style="font-family: 'Times New Roman'; font-size: 24px; fill: rgb(0, 0, 0); fill-opacity: 1; white-space: pre; opacity: 1;">10-20%</text></g><g class="xtick"><text text-anchor="middle" x="0" y="545" transform="translate(300.58000000000004,0)" style="font-family: 'Times New Roman'; font-size: 24px; fill: rgb(0, 0, 0); fill-opacity: 1; white-space: pre; opacity: 1;">20-30%</text></g><g class="xtick"><text text-anchor="middle" x="0" y="545" transform="translate(387.15,0)" style="font-family: 'Times New Roman'; font-size: 24px; fill: rgb(0, 0, 0); fill-opacity: 1; white-space: pre; opacity: 1;">30-40%</text></g><g class="xtick"><text text-anchor="middle" x="0" y="545" transform="translate(473.72,0)" style="font-family: 'Times New Roman'; font-size: 24px; fill: rgb(0, 0, 0); fill-opacity: 1; white-space: pre; opacity: 1;">40-50%</text></g><g class="xtick"><text text-anchor="middle" x="0" y="545" transform="translate(560.28,0)" style="font-family: 'Times New Roman'; font-size: 24px; fill: rgb(0, 0, 0); fill-opacity: 1; white-space: pre; opacity: 1;">50-60%</text></g><g class="xtick"><text text-anchor="middle" x="0" y="545" transform="translate(646.85,0)" style="font-family: 'Times New Roman'; font-size: 24px; fill: rgb(0, 0, 0); fill-opacity: 1; white-space: pre; opacity: 1;">60-70%</text></g><g class="xtick"><text text-anchor="middle" x="0" y="545" transform="translate(733.42,0)" style="font-family: 'Times New Roman'; font-size: 24px; fill: rgb(0, 0, 0); fill-opacity: 1; white-space: pre; opacity: 1;">70-80%</text></g><g class="xtick"><text text-anchor="middle" x="0" y="545" transform="translate(819.98,0)" style="font-family: 'Times New Roman'; font-size: 24px; fill: rgb(0, 0, 0); fill-opacity: 1; white-space: pre; opacity: 1;">80-90%</text></g><g class="xtick"><text text-anchor="middle" x="0" y="545" transform="translate(906.55,0)" style="font-family: 'Times New Roman'; font-size: 24px; fill: rgb(0, 0, 0); fill-opacity: 1; white-space: pre; opacity: 1;">90-100%</text></g></g><g class="yaxislayer-above"><g class="ytick"><text text-anchor="end" x="79" y="8.399999999999999" transform="translate(0,495.25)" style="font-family: 'Times New Roman'; font-size: 24px; fill: rgb(0, 0, 0); fill-opacity: 1; white-space: pre; opacity: 1;">0</text></g><g class="ytick"><text text-anchor="end" x="79" y="8.399999999999999" style="font-family: 'Times New Roman'; font-size: 24px; fill: rgb(0, 0, 0); fill-opacity: 1; white-space: pre; opacity: 1;" transform="translate(0,440.35)">5</text></g><g class="ytick"><text text-anchor="end" x="79" y="8.399999999999999" style="font-family: 'Times New Roman'; font-size: 24px; fill: rgb(0, 0, 0); fill-opacity: 1; white-space: pre; opacity: 1;" transform="translate(0,385.45)">10</text></g><g class="ytick"><text text-anchor="end" x="79" y="8.399999999999999" style="font-family: 'Times New Roman'; font-size: 24px; fill: rgb(0, 0, 0); fill-opacity: 1; white-space: pre; opacity: 1;" transform="translate(0,330.55)">15</text></g><g class="ytick"><text text-anchor="end" x="79" y="8.399999999999999" style="font-family: 'Times New Roman'; font-size: 24px; fill: rgb(0, 0, 0); fill-opacity: 1; white-space: pre; opacity: 1;" transform="translate(0,275.64)">20</text></g><g class="ytick"><text text-anchor="end" x="79" y="8.399999999999999" style="font-family: 'Times New Roman'; font-size: 24px; fill: rgb(0, 0, 0); fill-opacity: 1; white-space: pre; opacity: 1;" transform="translate(0,220.74)">25</text></g><g class="ytick"><text text-anchor="end" x="79" y="8.399999999999999" style="font-family: 'Times New Roman'; font-size: 24px; fill: rgb(0, 0, 0); fill-opacity: 1; white-space: pre; opacity: 1;" transform="translate(0,165.84)">30</text></g><g class="ytick"><text text-anchor="end" x="79" y="8.399999999999999" style="font-family: 'Times New Roman'; font-size: 24px; fill: rgb(0, 0, 0); fill-opacity: 1; white-space: pre; opacity: 1;" transform="translate(0,110.94)">35</text></g></g><g class="overaxes-above"/></g></g><g class="polarlayer"/><g class="smithlayer"/><g class="ternarylayer"/><g class="geolayer"/><g class="funnelarealayer"/><g class="pielayer"/><g class="iciclelayer"/><g class="treemaplayer"/><g class="sunburstlayer"/><g class="glimages"/><defs id="topdefs-f676a3"><g class="clips"/><clipPath id="legendf676a3"><rect width="517" height="147" x="0" y="0"/></clipPath></defs><g class="layer-above"><g class="imagelayer"/><g class="shapelayer"/></g><g class="infolayer"><g class="legend" pointer-events="all" transform="translate(971.48,100)"><rect class="bg" shape-rendering="crispEdges" width="517" height="147" x="0" y="0" style="stroke: rgb(68, 68, 68); stroke-opacity: 1; fill: rgb(255, 255, 255); fill-opacity: 1; stroke-width: 0px;"/><g class="scrollbox" transform="" clip-path="url(#legendf676a3)"><g class="groups"><g class="traces" transform="translate(0,22.1)" style="opacity: 1;"><text class="legendtext" text-anchor="start" x="40" y="9.360000000000001" style="font-family: 'Times New Roman'; font-size: 24px; fill: rgb(0, 0, 0); fill-opacity: 1; white-space: pre;">% of All Males In Win Rate Range</text><g class="layers" style="opacity: 1;"><g class="legendfill"/><g class="legendlines"/><g class="legendsymbols"><g class="legendpoints"><path class="scatterpts" transform="translate(20,0)" d="M3,0A3,3 0 1,1 0,-3A3,3 0 0,1 3,0Z" style="opacity: 1; stroke-width: 0px; fill: rgb(99, 110, 250); fill-opacity: 1;"/></g></g></g><rect class="legendtoggle" x="0" y="-17.1" width="511.9375" height="34.2" style="fill: rgb(0, 0, 0); fill-opacity: 0;"/></g><g class="traces" transform="translate(0,56.300000000000004)" style="opacity: 1;"><text class="legendtext" text-anchor="start" x="40" y="9.360000000000001" style="font-family: 'Times New Roman'; font-size: 24px; fill: rgb(0, 0, 0); fill-opacity: 1; white-space: pre;">% of All Females In Win Rate Range</text><g class="layers" style="opacity: 1;"><g class="legendfill"/><g class="legendlines"/><g class="legendsymbols"><g class="legendpoints"><path class="scatterpts" transform="translate(20,0)" d="M3,0A3,3 0 1,1 0,-3A3,3 0 0,1 3,0Z" style="opacity: 1; stroke-width: 0px; fill: rgb(239, 85, 59); fill-opacity: 1;"/></g></g></g><rect class="legendtoggle" x="0" y="-17.1" width="511.9375" height="34.2" style="fill: rgb(0, 0, 0); fill-opacity: 0;"/></g><g class="traces" transform="translate(0,90.5)" style="opacity: 1;"><text class="legendtext" text-anchor="start" x="40" y="9.360000000000001" style="font-family: 'Times New Roman'; font-size: 24px; fill: rgb(0, 0, 0); fill-opacity: 1; white-space: pre;">Male 7th Degree Least Squares Polynomial Fit</text><g class="layers" style="opacity: 1;"><g class="legendfill"/><g class="legendlines"><path class="js-line" d="M5,0h30" style="fill: none; stroke: rgb(0, 204, 150); stroke-opacity: 1; stroke-width: 2px;"/></g><g class="legendsymbols"><g class="legendpoints"/></g></g><rect class="legendtoggle" x="0" y="-17.1" width="511.9375" height="34.2" style="fill: rgb(0, 0, 0); fill-opacity: 0;"/></g><g class="traces" transform="translate(0,124.70000000000002)" style="opacity: 1;"><text class="legendtext" text-anchor="start" x="40" y="9.360000000000001" style="font-family: 'Times New Roman'; font-size: 24px; fill: rgb(0, 0, 0); fill-opacity: 1; white-space: pre;">Female 7th Degree Least Squares Polynomial Fit</text><g class="layers" style="opacity: 1;"><g class="legendfill"/><g class="legendlines"><path class="js-line" d="M5,0h30" style="fill: none; stroke: rgb(171, 99, 250); stroke-opacity: 1; stroke-width: 2px;"/></g><g class="legendsymbols"><g class="legendpoints"/></g></g><rect class="legendtoggle" x="0" y="-17.1" width="511.9375" height="34.2" style="fill: rgb(0, 0, 0); fill-opacity: 0;"/></g></g></g><rect class="scrollbar" rx="20" ry="3" width="0" height="0" x="0" y="0" style="fill: rgb(128, 139, 164); fill-opacity: 1;"/></g><g class="g-gtitle"/><g class="g-xtitle"><text class="xtitle" x="517" y="585.3" text-anchor="middle" style="font-family: 'Times New Roman'; font-size: 29px; fill: rgb(0, 0, 0); opacity: 1; font-weight: normal; white-space: pre;">Elimination Round Win Rate Ranges</text></g><g class="g-ytitle" transform="translate(6.2998046875,0)"><text class="ytitle" transform="rotate(-90,19.700000000000003,310)" x="19.700000000000003" y="310" text-anchor="middle" style="font-family: 'Times New Roman'; font-size: 29px; fill: rgb(0, 0, 0); opacity: 1; font-weight: normal; white-space: pre;">% of Respective Gender Present In Range</text></g></g></svg>