<svg class="main-svg" xmlns="http://www.w3.org/2000/svg" xmlns:xlink="http://www.w3.org/1999/xlink" width="1500" height="600" style="" viewBox="0 0 1500 600"><rect x="0" y="0" width="1500" height="600" style="fill: rgb(255, 255, 255); fill-opacity: 1;"/><defs id="defs-6e2c47"><g class="clips"><clipPath id="clip6e2c47xyplot" class="plotclip"><rect width="874" height="420"/></clipPath><clipPath class="axesclip" id="clip6e2c47x"><rect x="80" y="0" width="874" height="600"/></clipPath><clipPath class="axesclip" id="clip6e2c47y"><rect x="0" y="100" width="1500" height="420"/></clipPath><clipPath class="axesclip" id="clip6e2c47xy"><rect x="80" y="100" width="874" height="420"/></clipPath></g><g class="gradients"/><g class="patterns"/></defs><g class="bglayer"/><g class="layer-below"><g class="imagelayer"/><g class="shapelayer"/></g><g class="cartesianlayer"><g class="subplot xy"><g class="layer-subplot"><g class="shapelayer"/><g class="imagelayer"/></g><g class="gridlayer"><g class="x"><path class="xgrid crisp" transform="translate(127.45,0)" d="M0,100v420" style="stroke: rgb(235, 240, 248); stroke-opacity: 1; stroke-width: 1px;"/><path class="xgrid crisp" transform="translate(214.02,0)" d="M0,100v420" style="stroke: rgb(235, 240, 248); stroke-opacity: 1; stroke-width: 1px;"/><path class="xgrid crisp" transform="translate(300.58000000000004,0)" d="M0,100v420" style="stroke: rgb(235, 240, 248); stroke-opacity: 1; stroke-width: 1px;"/><path class="xgrid crisp" transform="translate(387.15,0)" d="M0,100v420" style="stroke: rgb(235, 240, 248); stroke-opacity: 1; stroke-width: 1px;"/><path class="xgrid crisp" transform="translate(473.72,0)" d="M0,100v420" style="stroke: rgb(235, 240, 248); stroke-opacity: 1; stroke-width: 1px;"/><path class="xgrid crisp" transform="translate(560.28,0)" d="M0,100v420" style="stroke: rgb(235, 240, 248); stroke-opacity: 1; stroke-width: 1px;"/><path class="xgrid crisp" transform="translate(646.85,0)" d="M0,100v420" style="stroke: rgb(235, 240, 248); stroke-opacity: 1; stroke-width: 1px;"/><path class="xgrid crisp" transform="translate(733.42,0)" d="M0,100v420" style="stroke: rgb(235, 240, 248); stroke-opacity: 1; stroke-width: 1px;"/><path class="xgrid crisp" transform="translate(819.98,0)" d="M0,100v420" style="stroke: rgb(235, 240, 248); stroke-opacity: 1; stroke-width: 1px;"/><path class="xgrid crisp" transform="translate(906.55,0)" d="M0,100v420" style="stroke: rgb(235, 240, 248); stroke-opacity: 1; stroke-width: 1px;"/></g><g class="y"><path class="ygrid crisp" transform="translate(0,453.67)" d="M80,0h874" style="stroke: rgb(235, 240, 248); stroke-opacity: 1; stroke-width: 1px;"/><path class="ygrid crisp" transform="translate(0,411.57)" d="M80,0h874" style="stroke: rgb(235, 240, 248); stroke-opacity: 1; stroke-width: 1px;"/><path class="ygrid crisp" transform="translate(0,369.47)" d="M80,0h874" style="stroke: rgb(235, 240, 248); stroke-opacity: 1; stroke-width: 1px;"/><path class="ygrid crisp" transform="translate(0,327.37)" d="M80,0h874" style="stroke: rgb(235, 240, 248); stroke-opacity: 1; stroke-width: 1px;"/><path class="ygrid crisp" transform="translate(0,285.27)" d="M80,0h874" style="stroke: rgb(235, 240, 248); stroke-opacity: 1; stroke-width: 1px;"/><path class="ygrid crisp" transform="translate(0,243.17)" d="M80,0h874" style="stroke: rgb(235, 240, 248); stroke-opacity: 1; stroke-width: 1px;"/><path class="ygrid crisp" transform="translate(0,201.07)" d="M80,0h874" style="stroke: rgb(235, 240, 248); stroke-opacity: 1; stroke-width: 1px;"/><path class="ygrid crisp" transform="translate(0,158.97)" d="M80,0h874" style="stroke: rgb(235, 240, 248); stroke-opacity: 1; stroke-width: 1px;"/><path class="ygrid crisp" transform="translate(0,116.87)" d="M80,0h874" style="stroke: rgb(235, 240, 248); stroke-opacity: 1; stroke-width: 1px;"/></g></g><g class="zerolinelayer"><path class="yzl zl crisp" transform="translate(0,495.77)" d="M80,0h874" style="stroke: rgb(235, 240, 248); stroke-opacity: 1; stroke-width: 2px;"/></g><path class="xlines-below"/><path class="ylines-below"/><g class="overlines-below"/><g class="xaxislayer-below"/><g class="yaxislayer-below"/><g class="overaxes-below"/><g class="plot" transform="translate(80,100)" clip-path="url(#clip6e2c47xyplot)"><g class="scatterlayer mlayer"><g class="trace scatter trace0e77c9" style="stroke-miterlimit: 2; opacity: 1;"><g class="fills"/><g class="errorbars"/><g class="lines"/><g class="points"><path class="point" transform="translate(47.45,56.56)" d="M3,0A3,3 0 1,1 0,-3A3,3 0 0,1 3,0Z" style="opacity: 1; stroke-width: 0px; fill: rgb(99, 110, 250); fill-opacity: 1;"/><path class="point" transform="translate(134.02,362.22)" d="M3,0A3,3 0 1,1 0,-3A3,3 0 0,1 3,0Z" style="opacity: 1; stroke-width: 0px; fill: rgb(99, 110, 250); fill-opacity: 1;"/><path class="point" transform="translate(220.58,378.47)" d="M3,0A3,3 0 1,1 0,-3A3,3 0 0,1 3,0Z" style="opacity: 1; stroke-width: 0px; fill: rgb(99, 110, 250); fill-opacity: 1;"/><path class="point" transform="translate(307.15,386.34)" d="M3,0A3,3 0 1,1 0,-3A3,3 0 0,1 3,0Z" style="opacity: 1; stroke-width: 0px; fill: rgb(99, 110, 250); fill-opacity: 1;"/><path class="point" transform="translate(393.72,387.39)" d="M3,0A3,3 0 1,1 0,-3A3,3 0 0,1 3,0Z" style="opacity: 1; stroke-width: 0px; fill: rgb(99, 110, 250); fill-opacity: 1;"/><path class="point" transform="translate(480.28,391.58)" d="M3,0A3,3 0 1,1 0,-3A3,3 0 0,1 3,0Z" style="opacity: 1; stroke-width: 0px; fill: rgb(99, 110, 250); fill-opacity: 1;"/><path class="point" transform="translate(566.85,391.58)" d="M3,0A3,3 0 1,1 0,-3A3,3 0 0,1 3,0Z" style="opacity: 1; stroke-width: 0px; fill: rgb(99, 110, 250); fill-opacity: 1;"/><path class="point" transform="translate(653.42,394.73)" d="M3,0A3,3 0 1,1 0,-3A3,3 0 0,1 3,0Z" style="opacity: 1; stroke-width: 0px; fill: rgb(99, 110, 250); fill-opacity: 1;"/><path class="point" transform="translate(739.98,392.63)" d="M3,0A3,3 0 1,1 0,-3A3,3 0 0,1 3,0Z" style="opacity: 1; stroke-width: 0px; fill: rgb(99, 110, 250); fill-opacity: 1;"/><path class="point" transform="translate(826.55,395.25)" d="M3,0A3,3 0 1,1 0,-3A3,3 0 0,1 3,0Z" style="opacity: 1; stroke-width: 0px; fill: rgb(99, 110, 250); fill-opacity: 1;"/></g><g class="text"/></g><g class="trace scatter tracea10a7a" style="stroke-miterlimit: 2; opacity: 1;"><g class="fills"/><g class="errorbars"/><g class="lines"/><g class="points"><path class="point" transform="translate(47.45,24.75)" d="M3,0A3,3 0 1,1 0,-3A3,3 0 0,1 3,0Z" style="opacity: 1; stroke-width: 0px; fill: rgb(239, 85, 59); fill-opacity: 1;"/><path class="point" transform="translate(134.02,373.43)" d="M3,0A3,3 0 1,1 0,-3A3,3 0 0,1 3,0Z" style="opacity: 1; stroke-width: 0px; fill: rgb(239, 85, 59); fill-opacity: 1;"/><path class="point" transform="translate(220.58,388.13)" d="M3,0A3,3 0 1,1 0,-3A3,3 0 0,1 3,0Z" style="opacity: 1; stroke-width: 0px; fill: rgb(239, 85, 59); fill-opacity: 1;"/><path class="point" transform="translate(307.15,387.54)" d="M3,0A3,3 0 1,1 0,-3A3,3 0 0,1 3,0Z" style="opacity: 1; stroke-width: 0px; fill: rgb(239, 85, 59); fill-opacity: 1;"/><path class="point" transform="translate(393.72,391.66)" d="M3,0A3,3 0 1,1 0,-3A3,3 0 0,1 3,0Z" style="opacity: 1; stroke-width: 0px; fill: rgb(239, 85, 59); fill-opacity: 1;"/><path class="point" transform="translate(480.28,393.42)" d="M3,0A3,3 0 1,1 0,-3A3,3 0 0,1 3,0Z" style="opacity: 1; stroke-width: 0px; fill: rgb(239, 85, 59); fill-opacity: 1;"/><path class="point" transform="translate(566.85,394.01)" d="M3,0A3,3 0 1,1 0,-3A3,3 0 0,1 3,0Z" style="opacity: 1; stroke-width: 0px; fill: rgb(239, 85, 59); fill-opacity: 1;"/><path class="point" transform="translate(653.42,393.42)" d="M3,0A3,3 0 1,1 0,-3A3,3 0 0,1 3,0Z" style="opacity: 1; stroke-width: 0px; fill: rgb(239, 85, 59); fill-opacity: 1;"/><path class="point" transform="translate(739.98,395.19)" d="M3,0A3,3 0 1,1 0,-3A3,3 0 0,1 3,0Z" style="opacity: 1; stroke-width: 0px; fill: rgb(239, 85, 59); fill-opacity: 1;"/><path class="point" transform="translate(826.55,395.19)" d="M3,0A3,3 0 1,1 0,-3A3,3 0 0,1 3,0Z" style="opacity: 1; stroke-width: 0px; fill: rgb(239, 85, 59); fill-opacity: 1;"/></g><g class="text"/></g><g class="trace scatter trace6d5c1d" style="stroke-miterlimit: 2; opacity: 1;"><g class="fills"/><g class="errorbars"/><g class="lines"><path class="js-line" d="M47.45,56.6L134.02,361.91L220.58,379.54L307.15,384.2L393.72,390.06L480.28,389.44L566.85,392.65L653.42,394.42L739.98,392.67L826.55,395.77" style="vector-effect: non-scaling-stroke; fill: none; stroke: rgb(0, 204, 150); stroke-opacity: 1; stroke-width: 2px; opacity: 1;"/></g><g class="points"/><g class="text"/></g><g class="trace scatter trace543d09" style="stroke-miterlimit: 2; opacity: 1;"><g class="fills"/><g class="errorbars"/><g class="lines"><path class="js-line" d="M47.45,24.76L134.02,373.35L220.58,388.42L307.15,386.96L393.72,392.38L480.28,392.84L566.85,394.3L653.42,393.34L739.98,395.2L826.55,395.77" style="vector-effect: non-scaling-stroke; fill: none; stroke: rgb(171, 99, 250); stroke-opacity: 1; stroke-width: 2px; opacity: 1;"/></g><g class="points"/><g class="text"/></g></g></g><g class="overplot"/><path class="xlines-above crisp" d="M0,0" style="fill: none;"/><path class="ylines-above crisp" d="M0,0" style="fill: none;"/><g class="overlines-above"/><g class="xaxislayer-above"><g class="xtick"><text text-anchor="middle" x="0" y="545" transform="translate(127.45,0)" style="font-family: 'Times New Roman'; font-size: 24px; fill: rgb(0, 0, 0); fill-opacity: 1; white-space: pre; opacity: 1;">0-0.2</text></g><g class="xtick"><text text-anchor="middle" x="0" y="545" transform="translate(214.02,0)" style="font-family: 'Times New Roman'; font-size: 24px; fill: rgb(0, 0, 0); fill-opacity: 1; white-space: pre; opacity: 1;">0.2-0.4</text></g><g class="xtick"><text text-anchor="middle" x="0" y="545" transform="translate(300.58000000000004,0)" style="font-family: 'Times New Roman'; font-size: 24px; fill: rgb(0, 0, 0); fill-opacity: 1; white-space: pre; opacity: 1;">0.4-0.6</text></g><g class="xtick"><text text-anchor="middle" x="0" y="545" transform="translate(387.15,0)" style="font-family: 'Times New Roman'; font-size: 24px; fill: rgb(0, 0, 0); fill-opacity: 1; white-space: pre; opacity: 1;">0.6-0.8</text></g><g class="xtick"><text text-anchor="middle" x="0" y="545" transform="translate(473.72,0)" style="font-family: 'Times New Roman'; font-size: 24px; fill: rgb(0, 0, 0); fill-opacity: 1; white-space: pre; opacity: 1;">0.8-1.0</text></g><g class="xtick"><text text-anchor="middle" x="0" y="545" transform="translate(560.28,0)" style="font-family: 'Times New Roman'; font-size: 24px; fill: rgb(0, 0, 0); fill-opacity: 1; white-space: pre; opacity: 1;">1.0-1.2</text></g><g class="xtick"><text text-anchor="middle" x="0" y="545" transform="translate(646.85,0)" style="font-family: 'Times New Roman'; font-size: 24px; fill: rgb(0, 0, 0); fill-opacity: 1; white-space: pre; opacity: 1;">1.2-1.4</text></g><g class="xtick"><text text-anchor="middle" x="0" y="545" transform="translate(733.42,0)" style="font-family: 'Times New Roman'; font-size: 24px; fill: rgb(0, 0, 0); fill-opacity: 1; white-space: pre; opacity: 1;">1.6-1.8</text></g><g class="xtick"><text text-anchor="middle" x="0" y="545" transform="translate(819.98,0)" style="font-family: 'Times New Roman'; font-size: 24px; fill: rgb(0, 0, 0); fill-opacity: 1; white-space: pre; opacity: 1;">1.8-2.0</text></g><g class="xtick"><text text-anchor="middle" x="0" y="545" transform="translate(906.55,0)" style="font-family: 'Times New Roman'; font-size: 24px; fill: rgb(0, 0, 0); fill-opacity: 1; white-space: pre; opacity: 1;">2.0+</text></g></g><g class="yaxislayer-above"><g class="ytick"><text text-anchor="end" x="79" y="8.399999999999999" transform="translate(0,495.77)" style="font-family: 'Times New Roman'; font-size: 24px; fill: rgb(0, 0, 0); fill-opacity: 1; white-space: pre; opacity: 1;">0</text></g><g class="ytick"><text text-anchor="end" x="79" y="8.399999999999999" style="font-family: 'Times New Roman'; font-size: 24px; fill: rgb(0, 0, 0); fill-opacity: 1; white-space: pre; opacity: 1;" transform="translate(0,453.67)">10</text></g><g class="ytick"><text text-anchor="end" x="79" y="8.399999999999999" style="font-family: 'Times New Roman'; font-size: 24px; fill: rgb(0, 0, 0); fill-opacity: 1; white-space: pre; opacity: 1;" transform="translate(0,411.57)">20</text></g><g class="ytick"><text text-anchor="end" x="79" y="8.399999999999999" style="font-family: 'Times New Roman'; font-size: 24px; fill: rgb(0, 0, 0); fill-opacity: 1; white-space: pre; opacity: 1;" transform="translate(0,369.47)">30</text></g><g class="ytick"><text text-anchor="end" x="79" y="8.399999999999999" style="font-family: 'Times New Roman'; font-size: 24px; fill: rgb(0, 0, 0); fill-opacity: 1; white-space: pre; opacity: 1;" transform="translate(0,327.37)">40</text></g><g class="ytick"><text text-anchor="end" x="79" y="8.399999999999999" style="font-family: 'Times New Roman'; font-size: 24px; fill: rgb(0, 0, 0); fill-opacity: 1; white-space: pre; opacity: 1;" transform="translate(0,285.27)">50</text></g><g class="ytick"><text text-anchor="end" x="79" y="8.399999999999999" style="font-family: 'Times New Roman'; font-size: 24px; fill: rgb(0, 0, 0); fill-opacity: 1; white-space: pre; opacity: 1;" transform="translate(0,243.17)">60</text></g><g class="ytick"><text text-anchor="end" x="79" y="8.399999999999999" style="font-family: 'Times New Roman'; font-size: 24px; fill: rgb(0, 0, 0); fill-opacity: 1; white-space: pre; opacity: 1;" transform="translate(0,201.07)">70</text></g><g class="ytick"><text text-anchor="end" x="79" y="8.399999999999999" style="font-family: 'Times New Roman'; font-size: 24px; fill: rgb(0, 0, 0); fill-opacity: 1; white-space: pre; opacity: 1;" transform="translate(0,158.97)">80</text></g><g class="ytick"><text text-anchor="end" x="79" y="8.399999999999999" style="font-family: 'Times New Roman'; font-size: 24px; fill: rgb(0, 0, 0); fill-opacity: 1; white-space: pre; opacity: 1;" transform="translate(0,116.87)">90</text></g></g><g class="overaxes-above"/></g></g><g class="polarlayer"/><g class="smithlayer"/><g class="ternarylayer"/><g class="geolayer"/><g class="funnelarealayer"/><g class="pielayer"/><g class="iciclelayer"/><g class="treemaplayer"/><g class="sunburstlayer"/><g class="glimages"/><defs id="topdefs-6e2c47"><g class="clips"/><clipPath id="legend6e2c47"><rect width="517" height="147" x="0" y="0"/></clipPath></defs><g class="layer-above"><g class="imagelayer"/><g class="shapelayer"/></g><g class="infolayer"><g class="legend" pointer-events="all" transform="translate(971.48,100)"><rect class="bg" shape-rendering="crispEdges" style="stroke: rgb(68, 68, 68); stroke-opacity: 1; fill: rgb(255, 255, 255); fill-opacity: 1; stroke-width: 0px;" width="517" height="147" x="0" y="0"/><g class="scrollbox" transform="" clip-path="url(#legend6e2c47)"><g class="groups"><g class="traces" transform="translate(0,22.1)" style="opacity: 1;"><text class="legendtext" text-anchor="start" x="40" y="9.360000000000001" style="font-family: 'Times New Roman'; font-size: 24px; fill: rgb(0, 0, 0); fill-opacity: 1; white-space: pre;">% of All Males In OTR Score Range</text><g class="layers" style="opacity: 1;"><g class="legendfill"/><g class="legendlines"/><g class="legendsymbols"><g class="legendpoints"><path class="scatterpts" transform="translate(20,0)" d="M3,0A3,3 0 1,1 0,-3A3,3 0 0,1 3,0Z" style="opacity: 1; stroke-width: 0px; fill: rgb(99, 110, 250); fill-opacity: 1;"/></g></g></g><rect class="legendtoggle" x="0" y="-17.1" width="511.9375" height="34.2" style="fill: rgb(0, 0, 0); fill-opacity: 0;"/></g><g class="traces" transform="translate(0,56.300000000000004)" style="opacity: 1;"><text class="legendtext" text-anchor="start" x="40" y="9.360000000000001" style="font-family: 'Times New Roman'; font-size: 24px; fill: rgb(0, 0, 0); fill-opacity: 1; white-space: pre;">% of All Females In OTR Score Range</text><g class="layers" style="opacity: 1;"><g class="legendfill"/><g class="legendlines"/><g class="legendsymbols"><g class="legendpoints"><path class="scatterpts" transform="translate(20,0)" d="M3,0A3,3 0 1,1 0,-3A3,3 0 0,1 3,0Z" style="opacity: 1; stroke-width: 0px; fill: rgb(239, 85, 59); fill-opacity: 1;"/></g></g></g><rect class="legendtoggle" x="0" y="-17.1" width="511.9375" height="34.2" style="fill: rgb(0, 0, 0); fill-opacity: 0;"/></g><g class="traces" transform="translate(0,90.5)" style="opacity: 1;"><text class="legendtext" text-anchor="start" x="40" y="9.360000000000001" style="font-family: 'Times New Roman'; font-size: 24px; fill: rgb(0, 0, 0); fill-opacity: 1; white-space: pre;">Male 7th Degree Least Squares Polynomial Fit</text><g class="layers" style="opacity: 1;"><g class="legendfill"/><g class="legendlines"><path class="js-line" d="M5,0h30" style="fill: none; stroke: rgb(0, 204, 150); stroke-opacity: 1; stroke-width: 2px;"/></g><g class="legendsymbols"><g class="legendpoints"/></g></g><rect class="legendtoggle" x="0" y="-17.1" width="511.9375" height="34.2" style="fill: rgb(0, 0, 0); fill-opacity: 0;"/></g><g class="traces" transform="translate(0,124.70000000000002)" style="opacity: 1;"><text class="legendtext" text-anchor="start" x="40" y="9.360000000000001" style="font-family: 'Times New Roman'; font-size: 24px; fill: rgb(0, 0, 0); fill-opacity: 1; white-space: pre;">Female 7th Degree Least Squares Polynomial Fit</text><g class="layers" style="opacity: 1;"><g class="legendfill"/><g class="legendlines"><path class="js-line" d="M5,0h30" style="fill: none; stroke: rgb(171, 99, 250); stroke-opacity: 1; stroke-width: 2px;"/></g><g class="legendsymbols"><g class="legendpoints"/></g></g><rect class="legendtoggle" x="0" y="-17.1" width="511.9375" height="34.2" style="fill: rgb(0, 0, 0); fill-opacity: 0;"/></g></g></g><rect class="scrollbar" rx="20" ry="3" width="0" height="0" style="fill: rgb(128, 139, 164); fill-opacity: 1;" x="0" y="0"/></g><g class="g-gtitle"/><g class="g-xtitle"><text class="xtitle" x="517" y="585.3" text-anchor="middle" style="font-family: 'Times New Roman'; font-size: 29px; fill: rgb(0, 0, 0); opacity: 1; font-weight: normal; white-space: pre;">OTR Score Ranges</text></g><g class="g-ytitle" transform="translate(6.2998046875,0)"><text class="ytitle" transform="rotate(-90,19.700000000000003,310)" x="19.700000000000003" y="310" text-anchor="middle" style="font-family: 'Times New Roman'; font-size: 29px; fill: rgb(0, 0, 0); opacity: 1; font-weight: normal; white-space: pre;">% of Respective Gender Present In Range</text></g></g></svg>